<?xml version="1.0" standalone="no"?><!DOCTYPE svg PUBLIC "-//W3C//DTD SVG 1.1//EN" "http://www.w3.org/Graphics/SVG/1.1/DTD/svg11.dtd"><svg t="1525589539458" class="icon" style="" viewBox="0 0 1024 1024" version="1.1" xmlns="http://www.w3.org/2000/svg" p-id="2671" xmlns:xlink="http://www.w3.org/1999/xlink" width="200" height="200"><defs><style type="text/css"></style></defs><path d="M864.747009-1.4e-05 159.258713-1.4e-05C71.304227-1.4e-05-1.4e-05 71.304227-1.4e-05 159.258713l0 705.488296c0 87.954486 71.304241 159.253005 159.258727 159.253005l705.488296 0c87.954486 0 159.253005-71.29852 159.253005-159.253005l0-705.488296C1024.000014 71.304227 952.701495-1.4e-05 864.747009-1.4e-05L864.747009-1.4e-05zM405.735252 788.118695 144.027459 523.482804l111.824127-98.945935 155.151953 157.487851 374.544668-346.137692 94.425766 109.606955L405.735252 788.118695 405.735252 788.118695zM405.735252 788.118695" p-id="2672" fill="#1296db"></path></svg>