<?xml version="1.0" standalone="no"?><!DOCTYPE svg PUBLIC "-//W3C//DTD SVG 1.1//EN" "http://www.w3.org/Graphics/SVG/1.1/DTD/svg11.dtd"><svg t="1525587865122" class="icon" style="" viewBox="0 0 1024 1024" version="1.1" xmlns="http://www.w3.org/2000/svg" p-id="1936" xmlns:xlink="http://www.w3.org/1999/xlink" width="200" height="200"><defs><style type="text/css"></style></defs><path d="M756.7 183.4c-158.3-158.3-415-158.3-573.3 0s-158.3 415 0 573.3c142 142 362.9 156.2 521.2 43.5L844 939.6c26.3 26.3 69.3 26.3 95.6 0s26.3-69.3 0-95.6L800.2 704.7c112.7-158.4 98.5-379.3-43.5-521.3z m-95.5 477.8c-105.4 105.4-276.8 105.4-382.2 0S173.6 384.3 279 279s276.8-105.4 382.2 0 105.4 276.8 0 382.2z" p-id="1937" fill="#1296db"></path></svg>